<svg xmlns="http://www.w3.org/2000/svg" aria-hidden="true" style="position:absolute;width:0;height:0;overflow:hidden"><defs><symbol id="icon-antenna" viewBox="0 0 64 64"><path fill="#212121" d="M61.546 44.195 44.66 27.185l1.874-9.231a4.26 4.26 0 0 0 1.517.291h.013a4.319 4.319 0 1 0-4.018-2.872l-9.92 1.211L17.945.318a1.063 1.063 0 0 0-.753-.32c-.28.001-.548.113-.747.31L13.42 3.316a1.067 1.067 0 0 0 0 1.508l1.628 1.651a29.885 29.885 0 0 0 5.039 35.326.99.99 0 0 0 .292.195 6.276 6.276 0 0 0-.105 1.094v12.373h-12.8a5.34 5.34 0 0 0-5.333 5.333v2.133c0 .589.478 1.067 1.067 1.067h49.067c.589 0 1.067-.478 1.067-1.067v-2.133a5.34 5.34 0 0 0-5.333-5.333h-12.8v-5.484c2.005.421 4.048.635 6.097.64a29.697 29.697 0 0 0 14.08-3.567l1.636 1.646c.199.203.469.318.753.32.28-.001.548-.113.747-.31l3.025-3.008a1.067 1.067 0 0 0 0-1.508zM46.56 12.466a2.134 2.134 0 1 1 1.504 3.646h-.006a2.133 2.133 0 0 1-1.493-3.646h-.004zm-2.511 7.009-1.197 5.891-2.351-2.365 3.548-3.526zm-1.212-1.803-3.84 3.818-2.971-2.987 6.811-.831zM48.008 57.6a3.2 3.2 0 0 1 3.2 3.2v1.067H4.275V60.8a3.2 3.2 0 0 1 3.2-3.2h40.533zm-14.933-4.267v2.133H22.408v-2.133h10.667zM22.408 51.2v-8.107c0-2.588 2.393-4.693 5.333-4.693s5.333 2.106 5.333 4.693V51.2H22.407zm12.8-3.392v-4.715c0-3.764-3.349-6.827-7.467-6.827a7.6 7.6 0 0 0-6.562 3.572 27.737 27.737 0 0 1-4.557-31.774l37.204 37.417a27.643 27.643 0 0 1-18.618 2.326zm22.578-1.367L15.672 4.079l1.509-1.504 15.87 15.96c.007 0 .012.014.019.019l26.229 26.383-1.514 1.504z" style="fill:var(--color1, #212121)"/><path fill="#2196f3" d="M27.751 40.533h-.01a3.2 3.2 0 0 0-.01 6.4h.01a3.2 3.2 0 0 0 .01-6.4zm.747 3.957a1.067 1.067 0 1 1-.756-1.823 1.067 1.067 0 0 1 .747 1.823h.01z" style="fill:var(--color2, #2196f3)"/></symbol><symbol id="icon-astronaut" viewBox="0 0 64 64"><path fill="#2196f3" d="M63.948 9.048a1.067 1.067 0 0 0-.861-.725l-3.821-.556-1.71-3.462c-.358-.73-1.554-.73-1.913 0l-1.71 3.462-3.821.556a1.066 1.066 0 0 0-.592 1.818l2.766 2.696-.653 3.806c-.068.4.096.804.423 1.043.332.241.765.271 1.124.081l3.418-1.797 3.418 1.797a1.072 1.072 0 0 0 1.124-.081c.328-.239.493-.643.423-1.043l-.653-3.806 2.766-2.695a1.07 1.07 0 0 0 .27-1.093zm-4.926 2.654a1.064 1.064 0 0 0-.306.944l.382 2.228-2.001-1.052a1.066 1.066 0 0 0-.994 0l-2.001 1.052.382-2.228a1.068 1.068 0 0 0-.306-.944l-1.62-1.579 2.238-.325c.348-.05.648-.269.803-.584L56.6 7.187l1.001 2.027c.156.315.456.533.803.584l2.238.325-1.618 1.579zM52.267 41.044h-2.133v2.133h2.133v-2.133zM52.267 45.311h-2.133v2.133h2.133v-2.133zM54.4 43.178h-2.133v2.133H54.4v-2.133zM50.134 43.178h-2.133v2.133h2.133v-2.133zM44.8 52.778h-2.133v2.133H44.8v-2.133zM44.8 57.045h-2.133v2.133H44.8v-2.133zM46.934 54.911h-2.133v2.133h2.133v-2.133zM42.667 54.911h-2.133v2.133h2.133v-2.133zM32 48.511h-2.133v2.133H32v-2.133zM32 52.778h-2.133v2.133H32v-2.133zM34.133 50.645H32v2.133h2.133v-2.133zM29.867 50.645h-2.133v2.133h2.133v-2.133zM11.733 12.244H9.6v2.133h2.133v-2.133zM11.733 16.511H9.6v2.133h2.133v-2.133zM13.866 14.377h-2.133v2.133h2.133v-2.133zM9.6 14.377H7.467v2.133H9.6v-2.133z" style="fill:var(--color2, #2196f3)"/><path fill="#212121" d="M49.43 28.319a3.545 3.545 0 0 0-2.377-1.409 3.549 3.549 0 0 0-2.679.704l-2.505 1.92-3.795 2.834-2.716-1.082c4.843-2.173 8.227-7.017 8.227-12.64 0-7.646-6.245-13.867-13.922-13.867S15.741 11 15.741 18.646c0 2.771.829 5.348 2.24 7.517l-5.528-.048h-.01c-.017 0-.031.009-.047.01a1.036 1.036 0 0 0-.31.062c-.026.01-.052.015-.077.027-.013.005-.026.006-.038.013l-6.466 3.192-.002.001-3.787 1.821a.881.881 0 0 0-.126.07 3.562 3.562 0 0 0 .915 6.369 3.565 3.565 0 0 0 2.757-.257l2.776-1.476 4.528-2.338 2.714-.016L4.397 44.424l-.003.002-2.677 2.667a3.3 3.3 0 0 0-.98 2.355c0 .89.348 1.727.98 2.357.65.646 1.504.971 2.358.971a3.34 3.34 0 0 0 2.361-.971l2.628-2.618 3.482-2.599 1.802 1.794-3.523 3.508-.003.002-2.677 2.667c-.633.629-.98 1.465-.98 2.355s.348 1.727.98 2.358c.65.646 1.505.971 2.36.971s1.71-.324 2.361-.971l6.963-6.933.002-.003 2.019-2-.008-.008c.013-.013.031-.017.044-.031l10.332-11.316 6.942.988a.947.947 0 0 0 .524-.066c.035-.013.066-.03.099-.047.038-.019.079-.03.115-.054l6.427-4.267c.023-.016.036-.042.059-.059.026-.02.058-.029.081-.051l2.543-2.382a3.558 3.558 0 0 0 .424-4.724zM4.261 35.54c-.347.186-.74.223-1.117.103a1.428 1.428 0 0 1-.424-2.52l2.627-1.264.898 2.625-1.984 1.055zm6.994-3.655-3.097 1.6-.878-2.567 4.054-2.001-.079 2.968zm30.199-13.241c0 1.837-.438 3.569-1.198 5.119l-8.363-3.799a3.724 3.724 0 0 0-1.576-2.776l2.928-9.721C38 8.98 41.454 13.416 41.454 18.643zm-23.578 0c0-6.47 5.289-11.734 11.789-11.734.506 0 1 .043 1.49.104l-2.864 9.507c-.038-.001-.075-.012-.114-.012-2.065 0-3.745 1.675-3.745 3.733s1.68 3.733 3.745 3.733c1.389 0 2.589-.767 3.236-1.889l7.725 3.509c-2.149 2.893-5.59 4.78-9.473 4.78-6.5 0-11.789-5.264-11.789-11.734zm11.913 1.6c0 .882-.723 1.6-1.612 1.6s-1.612-.718-1.612-1.6c0-.882.723-1.6 1.612-1.6s1.612.718 1.612 1.6zM4.93 50.293a1.217 1.217 0 0 1-1.709.001 1.189 1.189 0 0 1 0-1.689l1.924-1.917 1.702 1.695-1.918 1.909zm6.427 7.466a1.217 1.217 0 0 1-1.71.001 1.189 1.189 0 0 1 0-1.689l1.925-1.918 1.704 1.695-1.919 1.91zm6.964-6.937-.003.002-3.53 3.52-1.704-1.695 3.526-3.51v-.001l.003-.002c.08-.08.13-.176.179-.271.014-.028.041-.051.052-.08.033-.082.038-.171.051-.257.006-.049.028-.095.028-.145 0-.072-.026-.141-.041-.211-.013-.064-.013-.129-.037-.191-.041-.1-.11-.189-.182-.275-.02-.023-.028-.053-.05-.076h-.001l-.002-.004-3.214-3.2c-.034-.034-.078-.048-.116-.077a.989.989 0 0 0-.174-.115.987.987 0 0 0-.187-.065 1.013 1.013 0 0 0-.206-.039 1.02 1.02 0 0 0-.191.01.982.982 0 0 0-.208.041.934.934 0 0 0-.189.09c-.04.022-.084.03-.122.058l-3.547 2.648-1.802-1.794 4.798-4.772 8.721 8.577-1.855 1.838zm13.637-14.034c-.031-.004-.06.008-.091.005a1.046 1.046 0 0 0-.23.014.983.983 0 0 0-.369.137.99.99 0 0 0-.166.123c-.026.022-.056.033-.08.059l-9.397 10.291-8.656-8.513 5.666-5.636a1.067 1.067 0 0 0-.76-1.822v-.001l-4.437.027.056-3.215 6.208.053a13.897 13.897 0 0 0 9.963 4.202c.875 0 1.728-.091 2.559-.245.08.064.159.129.259.17l4.819 1.92.305 1.517.356 1.771-6.005-.854zm8.083.357-.626-3.116 2.893-2.16 1.893 2.513-4.16 2.763zm7.507-5.662-1.676 1.57-1.862-2.473 1.663-1.275c.31-.239.702-.336 1.086-.286.386.054.727.256.96.569a1.428 1.428 0 0 1-.171 1.894z" style="fill:var(--color1, #212121)"/><path fill="#212121" d="m27.204 37.088-4.286-4.267a1.065 1.065 0 0 0-1.505 0l-4.285 4.267a1.07 1.07 0 0 0 0 1.512l4.285 4.267a1.065 1.065 0 0 0 1.505 0l4.286-4.267a1.067 1.067 0 0 0 0-1.512zm-5.038 3.518-2.773-2.762 2.773-2.762 2.774 2.762-2.774 2.762zM34.328 10.142l-.515 2.072c.142.035 3.475.903 3.475 4.298h2.133c0-4.034-3.331-5.931-5.093-6.369zM39.422 18.644h-2.133v2.133h2.133v-2.133z" style="fill:var(--color1, #212121)"/></symbol><symbol id="icon-clock" viewBox="0 0 64 64"><path fill="#212121" d="M62.593 30.602C62.589 13.697 48.883-.004 31.977 0S1.371 13.711 1.375 30.616a30.609 30.609 0 0 0 21.299 29.152c.121.038.247.058.374.057.241 0 .478-.065.685-.188.27-.16.472-.414.566-.713l7.73-24.5a3.826 3.826 0 0 0-.04-7.653 3.763 3.763 0 0 0-1.64.383L20.137 16.941a1.276 1.276 0 0 0-1.803 1.803l10.207 10.218a3.753 3.753 0 0 0 1.073 4.618l-7.365 23.346C7.693 51.564.24 35.418 5.602 20.863S27.11-1.146 41.665 4.216s22.009 21.508 16.647 36.063a28.092 28.092 0 0 1-14.924 15.947l-.796-3.749a1.275 1.275 0 0 0-2.097-.687l-7.674 6.851a1.276 1.276 0 0 0 .461 2.169l9.797 3.127a1.275 1.275 0 0 0 1.638-1.479l-.782-3.678a30.51 30.51 0 0 0 18.658-28.178zm-30.609-1.275a1.275 1.275 0 1 1 0 2.55 1.275 1.275 0 0 1 0-2.55zm4.201 29.728 4.368-3.897 1.206 5.681-5.574-1.784z" style="fill:var(--color1, #212121)"/><path fill="#2196f3" d="M30.709 6.37v2.551a1.275 1.275 0 1 0 2.55 0V6.37a1.275 1.275 0 0 0-2.55 0zM7.752 29.327a1.275 1.275 0 1 0 0 2.55h2.551a1.275 1.275 0 1 0 0-2.55H7.752zM56.216 31.878a1.275 1.275 0 1 0 0-2.55h-2.551a1.275 1.275 0 0 0 0 2.55h2.551z" style="fill:var(--color2, #2196f3)"/></symbol><symbol id="icon-diagram" viewBox="0 0 64 64"><path fill="#2196f3" d="M29.851 29.929h2.132v9.595h-2.132v-9.595zM38.38 34.194h2.132v5.331H38.38v-5.331zM21.322 37.392h2.132v2.132h-2.132v-2.132zM14.926 36.326h2.132v3.198h-2.132v-3.198z" style="fill:var(--color2, #2196f3)"/><path fill="#212121" d="M3.198 56.582h51.173a3.198 3.198 0 0 0 3.198-3.198V49.12a3.198 3.198 0 0 0-3.198-3.198h-1.066V19.335l6.056-5.737a3.216 3.216 0 1 0-.409-5.53 3.217 3.217 0 0 0-1.085 4.004l-4.563 4.325v-2.46a3.198 3.198 0 0 0-3.198-3.198H7.462a3.198 3.198 0 0 0-3.198 3.198V45.92H3.198A3.198 3.198 0 0 0 0 49.118v4.264a3.198 3.198 0 0 0 3.198 3.198zm57.57-46.909a1.066 1.066 0 1 1 0 2.131 1.066 1.066 0 0 1 0-2.131zM6.397 13.938c0-.589.477-1.066 1.066-1.066h42.644c.589 0 1.066.477 1.066 1.066v4.477l-2.132 2.026V16.07c0-.589-.477-1.066-1.066-1.066H9.595c-.589 0-1.066.477-1.066 1.066v26.653c0 .589.477 1.066 1.066 1.066h38.38c.589 0 1.066-.477 1.066-1.066V23.374l2.132-2.02v24.567H6.396V13.938zm9.595 13.859a3.197 3.197 0 1 0 2.214 5.496l3.706 1.859c.431.216.953.115 1.273-.245l7.878-8.863 7.744 5.803c.415.311.995.278 1.372-.079l6.73-6.375v16.262H10.661v-24.52h36.248v5.321l-7.543 7.143-7.809-5.854a1.066 1.066 0 0 0-1.436.144l-7.986 8.985-2.985-1.493c.022-.128.035-.257.041-.387a3.198 3.198 0 0 0-3.198-3.198zm1.066 3.198a1.066 1.066 0 1 1-2.131 0 1.066 1.066 0 0 1 2.131 0zm6.396 17.058h10.661v1.066c0 .589-.477 1.066-1.066 1.066H24.52a1.066 1.066 0 0 1-1.066-1.066v-1.066zM2.132 49.119c0-.589.477-1.066 1.066-1.066h18.124v1.066a3.198 3.198 0 0 0 3.198 3.198h8.529a3.198 3.198 0 0 0 3.198-3.198v-1.066h18.124c.589 0 1.066.477 1.066 1.066v4.264c0 .589-.477 1.066-1.066 1.066H3.198a1.066 1.066 0 0 1-1.066-1.066v-4.264z" style="fill:var(--color1, #212121)"/></symbol><symbol id="icon-envelope" viewBox="0 0 85 64"><path fill="#757575" d="M77.333 0H8C3.588 0 0 3.589 0 8v48c0 4.411 3.589 8 8 8h69.333c4.411 0 8-3.589 8-8V8c0-4.412-3.589-8-8-8zm0 5.333c.362 0 .707.075 1.022.206L42.666 36.471 6.977 5.539c.315-.131.66-.206 1.022-.206h69.333zm0 53.334H8A2.669 2.669 0 0 1 5.333 56V11.174l35.586 30.841c.503.435 1.125.651 1.747.651s1.245-.216 1.747-.651l35.586-30.841V56a2.669 2.669 0 0 1-2.667 2.667z" style="fill:var(--color3, #757575)"/></symbol><symbol id="icon-facebook" viewBox="0 0 64 64"><path fill="#fff" d="M64 32c0 8.837-3.582 16.837-9.373 22.628s-13.791 9.373-22.628 9.373-16.837-3.582-22.627-9.373C3.581 48.837-.001 40.837-.001 32S3.581 15.163 9.372 9.373 23.163 0 31.999 0c8.836 0 16.837 3.582 22.628 9.373S64 23.164 64 32z" style="fill:var(--color4, #fff)"/><path fill="#afb1b8" d="M36.845 22.285h2.656V17.66c-.458-.063-2.034-.205-3.869-.205-3.829 0-6.452 2.408-6.452 6.835v4.074h-4.225v5.171h4.225v13.011h5.181v-13.01h4.055l.644-5.171h-4.7v-3.562c.001-1.495.404-2.518 2.486-2.518z" style="fill:var(--color5, #afb1b8)"/></symbol><symbol id="icon-instagram" viewBox="0 0 64 64"><path fill="#fff" d="M64 32c0 8.837-3.582 16.837-9.373 22.628s-13.791 9.373-22.628 9.373-16.837-3.582-22.627-9.373C3.581 48.837-.001 40.837-.001 32S3.581 15.163 9.372 9.373 23.163 0 31.999 0c8.836 0 16.837 3.582 22.628 9.373S64 23.164 64 32z" style="fill:var(--color4, #fff)"/><path fill="#afb1b8" d="M46.517 26.007c-.068-1.546-.318-2.608-.676-3.529a7.109 7.109 0 0 0-1.682-2.58 7.158 7.158 0 0 0-2.574-1.677c-.926-.358-1.983-.608-3.529-.676-1.557-.074-2.052-.091-6.001-.091s-4.444.017-5.995.085c-1.546.068-2.608.318-3.529.676a7.092 7.092 0 0 0-2.58 1.682 7.158 7.158 0 0 0-1.677 2.574c-.358.926-.608 1.983-.676 3.529-.074 1.557-.091 2.052-.091 6.001s.017 4.444.085 5.995c.068 1.546.318 2.608.676 3.529a7.174 7.174 0 0 0 1.682 2.58 7.143 7.143 0 0 0 2.574 1.676c.926.358 1.983.608 3.529.676 1.551.068 2.046.085 5.996.085s4.444-.017 5.995-.085c1.546-.068 2.608-.318 3.529-.676a7.444 7.444 0 0 0 4.257-4.256c.358-.926.608-1.984.676-3.529.068-1.552.085-2.046.085-5.995s-.006-4.444-.074-5.995zm-2.62 11.878c-.063 1.421-.301 2.188-.5 2.699a4.829 4.829 0 0 1-2.762 2.762c-.511.199-1.284.438-2.699.5-1.534.068-1.995.085-5.876.085s-4.348-.017-5.876-.085c-1.421-.062-2.188-.301-2.699-.5a4.464 4.464 0 0 1-1.671-1.086 4.522 4.522 0 0 1-1.085-1.671c-.199-.511-.438-1.284-.5-2.699-.068-1.534-.085-1.995-.085-5.876s.017-4.347.085-5.876c.062-1.421.301-2.188.5-2.699a4.416 4.416 0 0 1 1.091-1.671 4.514 4.514 0 0 1 1.671-1.085c.511-.199 1.284-.438 2.699-.5 1.534-.068 1.995-.085 5.876-.085 3.887 0 4.347.017 5.876.085 1.421.063 2.188.301 2.7.5a4.474 4.474 0 0 1 1.671 1.085c.483.472.852 1.04 1.086 1.671.199.511.438 1.284.5 2.699.068 1.534.085 1.995.085 5.876s-.017 4.336-.085 5.871z" style="fill:var(--color5, #afb1b8)"/><path fill="#afb1b8" d="M32.054 24.53c-4.126 0-7.473 3.347-7.473 7.473s3.347 7.473 7.473 7.473c4.126 0 7.473-3.347 7.473-7.473s-3.347-7.473-7.473-7.473zm0 12.32a4.849 4.849 0 1 1 .001-9.697 4.849 4.849 0 0 1-.001 9.697zM41.567 24.234a1.745 1.745 0 1 1-3.49 0 1.745 1.745 0 0 1 3.49 0z" style="fill:var(--color5, #afb1b8)"/></symbol><symbol id="icon-linkedin" viewBox="0 0 64 64"><path fill="#fff" d="M64 32c0 8.837-3.582 16.837-9.373 22.628s-13.791 9.373-22.628 9.373-16.837-3.582-22.627-9.373C3.581 48.837-.001 40.837-.001 32S3.581 15.163 9.372 9.373 23.163 0 31.999 0c8.836 0 16.837 3.582 22.628 9.373S64 23.164 64 32z" style="fill:var(--color4, #fff)"/><path fill="#afb1b8" d="M46.538 46.545v-.001h.007V35.875c0-5.219-1.124-9.24-7.225-9.24-2.933 0-4.902 1.61-5.705 3.136h-.085v-2.648h-5.785v19.422h6.024v-9.617c0-2.532.48-4.98 3.616-4.98 3.09 0 3.136 2.89 3.136 5.143v9.456h6.018zM17.935 27.124h6.031v19.422h-6.031V27.124zM20.948 17.455c-1.929 0-3.493 1.565-3.493 3.493s1.565 3.526 3.493 3.526 3.493-1.598 3.493-3.526a3.495 3.495 0 0 0-3.493-3.493z" style="fill:var(--color5, #afb1b8)"/></symbol><symbol id="icon-logo1" viewBox="0 0 111 64"><path fill="#afb1b8" d="m39.869 8.092 7.352 6.96-13.648-.008v33.77h35.672V35.902l7.344 6.953V8.092H39.868zm29.054 26.994L48.076 15.351h20.847v19.735zm-6.473 8.789H39.218V21.163h1.642v21.174h21.59v1.538zm-17.746 9.436-.858 1.767-.858-1.767h-.72l1.253 2.356v1.373h.651v-1.373l1.25-2.356h-.717zm1.079 3.73.302-.868h1.445l.305.868h.676L47.1 53.312h-.581l-1.409 3.729h.674zm1.024-2.938.54 1.547h-1.081l.541-1.547zm3.417 1.457a.845.845 0 0 0-.141.474c0 .314.11.569.331.766.222.195.517.292.886.292s.687-.1.953-.3l.21.248h.722l-.548-.648c.215-.294.323-.67.323-1.13h-.54c0 .251-.052.479-.156.684l-.72-.85.254-.184c.179-.13.308-.26.387-.389a.818.818 0 0 0 .118-.43.769.769 0 0 0-.261-.592.941.941 0 0 0-.666-.241c-.301 0-.54.085-.717.256-.178.169-.266.4-.266.691 0 .12.028.243.085.371.058.128.16.283.305.466-.277.198-.462.37-.556.515zm1.683.825a.95.95 0 0 1-.589.21c-.186 0-.335-.054-.446-.161s-.166-.248-.166-.42c0-.2.102-.377.307-.533l.079-.056.815.961zm-.668-1.652c-.176-.217-.264-.397-.264-.54 0-.125.036-.228.108-.31s.168-.123.289-.123c.113 0 .206.035.279.105.073.068.11.151.11.248a.46.46 0 0 1-.159.361l-.079.064-.284.195zm6.07 2.026c.256-.224.403-.535.441-.932h-.646c-.034.266-.115.457-.243.571s-.319.172-.574.172c-.278 0-.49-.106-.635-.318-.144-.212-.215-.519-.215-.922v-.331c.003-.398.08-.699.23-.904.152-.207.369-.31.651-.31.242 0 .426.06.551.179.126.118.205.311.236.579h.646c-.041-.408-.187-.724-.438-.948s-.582-.336-.994-.336c-.306 0-.575.073-.809.218-.232.145-.411.352-.535.62s-.187.578-.187.93v.348c.005.343.069.645.192.904s.297.46.523.602c.227.14.489.21.786.21.425 0 .766-.111 1.022-.333zm3.809-.523c.126-.277.19-.598.19-.963v-.208a2.257 2.257 0 0 0-.195-.955 1.42 1.42 0 0 0-.546-.63c-.234-.147-.503-.22-.807-.22s-.574.074-.809.223a1.456 1.456 0 0 0-.546.638 2.28 2.28 0 0 0-.192.963v.21c.002.357.066.672.195.945.13.273.313.484.548.633.237.147.507.22.809.22.306 0 .575-.073.809-.22.236-.149.417-.36.543-.635zm-.694-2.108c.157.22.236.537.236.95v.195c0 .42-.078.739-.233.958-.154.219-.374.328-.661.328a.775.775 0 0 1-.666-.336c-.159-.224-.238-.54-.238-.95v-.215c.003-.401.084-.711.241-.93a.768.768 0 0 1 .658-.331c.287 0 .508.11.663.331z" style="fill:var(--color5, #afb1b8)"/></symbol><symbol id="icon-logo2" viewBox="0 0 111 64"><path fill="#afb1b8" d="M52.578 6.975h-.143c-.22-.013-.441-.019-.661-.024h-.478c-.417 0-.841.011-1.263.032a.769.769 0 0 0-.096 0 29.656 29.656 0 0 0-11.033 2.815l-.454.219v23.23l1.062-.36c.932-.32 1.924-.608 2.951-.875a35.968 35.968 0 0 1 8.493-1.128v3.052c-.38.003-.748.013-1.117.032h-.088a33.983 33.983 0 0 0-6.535 1.003 33.186 33.186 0 0 0-7.785 3.034V8.212a31.207 31.207 0 0 1 8.167-3.322c2.515-.649 5.1-.983 7.697-.993h.449c.536.013 1.059.037 1.55.075 1.294.091 2.577.295 3.835.611v3.004a23.66 23.66 0 0 0-3.716-.56l-.076-.006c-.259-.022-.518-.044-.76-.044zm5.287 3.07c.666.051 1.356.075 2.054.075 2.73-.01 5.448-.359 8.092-1.038a33.317 33.317 0 0 0 7.782-3.036v29.262a31.303 31.303 0 0 1-8.169 3.322 31.431 31.431 0 0 1-7.697.99 23.497 23.497 0 0 1-5.839-.688V9.48c.451.104.916.2 1.388.28.775.131 1.593.227 2.389.286zm14.893.227-1.062.357c-.977.328-1.961.622-2.951.883a35.906 35.906 0 0 1-8.82 1.131c-.693 0-1.33-.019-1.945-.059l-.847-.056v23.897l.727.064c.674.059 1.37.088 2.07.088a28.224 28.224 0 0 0 6.946-.899 29.165 29.165 0 0 0 5.428-1.95l.454-.219V10.271zM37.495 48.184a1.574 1.574 0 0 0-1.181-.478 1.77 1.77 0 0 0-.682.128 1.522 1.522 0 0 0-.873.883 1.724 1.724 0 0 0-.122.659v3.981c-.009.281.044.559.157.816.094.204.23.386.398.533.159.134.346.231.547.283.194.054.394.082.594.083.222.002.441-.045.642-.139a1.682 1.682 0 0 0 1.006-1.537v-.446H36.94v.355a.935.935 0 0 1-.061.355.634.634 0 0 1-.151.224.733.733 0 0 1-.436.152.523.523 0 0 1-.489-.214.944.944 0 0 1-.138-.533v-3.711c-.007-.206.037-.41.127-.595a.532.532 0 0 1 .51-.241.556.556 0 0 1 .465.225.847.847 0 0 1 .172.534v.344h1.03v-.406a1.882 1.882 0 0 0-.127-.696 1.629 1.629 0 0 0-.348-.56zM43.676 48.139a1.857 1.857 0 0 0-1.184-.438 1.828 1.828 0 0 0-.621.112 1.646 1.646 0 0 0-.953.883 1.855 1.855 0 0 0-.151.771v3.818c-.007.269.044.535.151.782.094.205.232.387.404.534.159.148.346.262.549.336a1.78 1.78 0 0 0 1.805-.336c.166-.149.3-.331.393-.534a1.84 1.84 0 0 0 .151-.782v-3.818a1.871 1.871 0 0 0-.151-.771c-.093-.21-.226-.4-.393-.558zm-.485 5.146a.682.682 0 0 1-.207.553.763.763 0 0 1-.98 0 .692.692 0 0 1-.207-.553v-3.818a.682.682 0 0 1 .207-.553.763.763 0 0 1 .98 0 .692.692 0 0 1 .207.553v3.818zM51.795 54.99v-7.227h-1.001l-1.314 3.826h-.019l-1.325-3.826h-.99v7.227h1.032v-4.397h.019l1.011 3.108h.515l1.019-3.108h.019v4.397h1.032zM57.661 48.269a1.44 1.44 0 0 0-.584-.395 2.293 2.293 0 0 0-.748-.112h-1.534v7.228h1.03v-2.823h.531c.321.015.641-.053.929-.197.234-.13.429-.321.565-.552a1.73 1.73 0 0 0 .236-.63c.041-.272.059-.547.056-.822a4.114 4.114 0 0 0-.101-1.032 1.53 1.53 0 0 0-.38-.664zm-.531 2.204a.895.895 0 0 1-.096.376.587.587 0 0 1-.265.254 1.069 1.069 0 0 1-.486.091h-.47v-2.457h.531a.983.983 0 0 1 .465.091.586.586 0 0 1 .242.267c.056.127.087.264.09.403v.48c0 .168.011.342 0 .496h-.011zM62.539 47.763h-.844l-1.592 7.227h1.03l.303-1.553h1.404l.303 1.553h1.03l-1.632-7.227zm-.95 4.69.507-2.62h.019l.504 2.62h-1.03zM69.193 52.117h-.019l-1.555-4.354h-.99v7.227h1.03v-4.346h.021l1.574 4.346h.969v-7.227h-1.03v4.354zM75.486 47.763l-.828 2.873h-.021l-.828-2.873h-1.091l1.415 4.173v3.055h1.03v-3.055l1.415-4.173h-1.091zM34.623 57.031h.496v1.393h.337v-1.393h.494v-.285h-1.327v.285zM38.795 56.746l-.65 1.678h.358l.138-.382h.669l.143.382h.366l-.666-1.678h-.358zm-.053 1.013.228-.622.228.622h-.456zM42.92 57.805h.388v.216a.634.634 0 0 1-.398.141.417.417 0 0 1-.355-.16.704.704 0 0 1-.125-.438c0-.373.162-.56.483-.56a.357.357 0 0 1 .38.267l.332-.064c-.072-.328-.308-.494-.711-.494a.846.846 0 0 0-.587.216.827.827 0 0 0-.242.646c-.01.23.067.454.215.63a.805.805 0 0 0 .637.245c.263.007.518-.088.711-.267v-.662h-.727v.283zM47.132 56.746h-.34v1.678h1.176v-.285h-.836v-1.393zM50.694 56.746h-.34v1.678h.34v-1.678zM54.176 57.866l-.687-1.12h-.329v1.678h.316v-1.097l.674 1.097h.337v-1.678h-.311v1.12zM57.324 57.685h.836V57.4h-.836v-.368h.9v-.285h-1.239v1.678h1.274v-.285h-.934v-.454zM64.957 57.407h-.661v-.662h-.337v1.678h.337v-.734h.661v.734h.337v-1.678h-.337v.662zM68.124 57.685h.839V57.4h-.839v-.368h.902v-.285h-1.24v1.678h1.271v-.285h-.934v-.454zM72.418 57.685c.292-.045.441-.2.441-.467a.404.404 0 0 0-.164-.373.96.96 0 0 0-.491-.099h-.711v1.678h.337v-.702h.066a.458.458 0 0 1 .21.037c.049.03.09.073.12.123l.366.534h.403l-.204-.328c-.09-.162-.218-.3-.371-.403zm-.34-.232h-.249v-.422h.265a.88.88 0 0 1 .342.04.222.222 0 0 1 .074.175.22.22 0 0 1-.09.167.967.967 0 0 1-.342.04zM75.656 57.685h.836V57.4h-.836v-.368h.902v-.285h-1.242v1.678h1.274v-.285h-.934v-.454z" style="fill:var(--color5, #afb1b8)"/></symbol><symbol id="icon-logo3" viewBox="0 0 113 64"><path fill="#afb1b8" d="M38.833 52.375a.134.134 0 0 1 .09.036l.233.222a1.92 1.92 0 0 1-.654.422c-.293.107-.61.159-.928.152a2.466 2.466 0 0 1-.872-.142 1.922 1.922 0 0 1-.657-.399 1.798 1.798 0 0 1-.425-.617 2.038 2.038 0 0 1-.148-.791c-.004-.271.05-.54.16-.794.102-.23.255-.439.451-.617.199-.174.436-.311.698-.402a2.72 2.72 0 0 1 .899-.142c.285-.006.569.038.835.129.23.087.442.207.625.356l-.195.238a.175.175 0 0 1-.05.043.133.133 0 0 1-.078.018.2.2 0 0 1-.084-.025l-.105-.063-.145-.081a1.651 1.651 0 0 0-.46-.141 2 2 0 0 0-.346-.025 1.903 1.903 0 0 0-.646.106 1.483 1.483 0 0 0-.506.298 1.378 1.378 0 0 0-.329.475 1.596 1.596 0 0 0-.119.627 1.63 1.63 0 0 0 .119.637 1.4 1.4 0 0 0 .323.473c.133.128.298.229.483.293.19.068.394.103.599.101.119.002.237-.005.355-.02a1.396 1.396 0 0 0 .768-.326.18.18 0 0 1 .111-.04zM45.551 51.257a1.93 1.93 0 0 1-.157.786c-.095.228-.244.436-.438.61s-.428.311-.687.401a2.827 2.827 0 0 1-1.768 0 2.032 2.032 0 0 1-.683-.402 1.783 1.783 0 0 1-.442-.617 2.054 2.054 0 0 1 0-1.574c.099-.23.249-.44.442-.619.195-.168.428-.3.683-.387a2.785 2.785 0 0 1 1.768 0c.258.091.492.228.686.402.191.176.341.383.439.609.108.253.161.521.157.791zm-.61 0a1.656 1.656 0 0 0-.111-.632 1.31 1.31 0 0 0-.311-.473 1.365 1.365 0 0 0-.492-.298 2.046 2.046 0 0 0-1.285 0 1.37 1.37 0 0 0-.491.298 1.261 1.261 0 0 0-.314.473 1.855 1.855 0 0 0 0 1.264 1.302 1.302 0 0 0 .805.769 2.09 2.09 0 0 0 1.285 0c.187-.066.355-.167.492-.296.139-.138.245-.298.311-.473.078-.204.115-.417.111-.632zM50.135 51.92l.061.142a3.85 3.85 0 0 1 .067-.142 1.18 1.18 0 0 1 .076-.139l1.486-2.347c.029-.04.055-.066.084-.073a.415.415 0 0 1 .122-.013h.439v3.818h-.521V50.24a.954.954 0 0 1 0-.131l-1.495 2.38c-.019.036-.049.066-.087.087s-.083.032-.128.032h-.084c-.045.001-.09-.01-.128-.031s-.069-.051-.087-.087l-1.538-2.395v3.064h-.503v-3.81h.439a.384.384 0 0 1 .122.013.161.161 0 0 1 .081.073l1.518 2.35c.03.043.055.089.076.136zM55.727 51.73v1.43h-.582v-3.813h1.297a2.79 2.79 0 0 1 .724.083c.188.046.363.127.512.238a.98.98 0 0 1 .291.374c.069.156.102.321.099.488a1.062 1.062 0 0 1-.422.87 1.484 1.484 0 0 1-.515.253 2.425 2.425 0 0 1-.701.088l-.704-.01zm0-.409h.704c.153.002.305-.018.451-.058a.99.99 0 0 0 .326-.164.735.735 0 0 0 .268-.574c.007-.106-.013-.212-.058-.311s-.115-.188-.203-.26a1.248 1.248 0 0 0-.782-.205h-.704v1.572zM63.545 53.165h-.459a.219.219 0 0 1-.128-.035.245.245 0 0 1-.076-.088l-.395-.922h-1.986l-.41.922a.22.22 0 0 1-.204.124h-.459l1.745-3.818h.605l1.768 3.818zm-2.879-1.417h1.64l-.692-1.554a2.492 2.492 0 0 1-.131-.359l-.067.2c-.02.061-.044.116-.064.162l-.686 1.552zM66.057 49.365c.035.017.065.04.087.068l2.545 2.878V49.347h.521v3.818h-.291a.284.284 0 0 1-.119-.023.31.31 0 0 1-.093-.071l-2.542-2.876a.954.954 0 0 1 0 .131v2.837h-.521v-3.818h.308a.267.267 0 0 1 .105.018zM73.497 51.647v1.516h-.582v-1.516l-1.608-2.299h.521a.208.208 0 0 1 .125.033.356.356 0 0 1 .079.086l1.006 1.483a1.736 1.736 0 0 1 .178.339l.076-.164c.028-.06.061-.118.099-.174l.992-1.493a.387.387 0 0 1 .076-.081.195.195 0 0 1 .125-.038h.526l-1.611 2.31zM49.847 42.94c.253.028.509.051.768.071 3.924-1.525 7.244-4.022 9.544-7.177s3.479-6.83 3.389-10.564l-4.325-3.757c.879 3.976.468 8.086-1.188 11.87s-4.491 7.094-8.188 9.558z" style="fill:var(--color5, #afb1b8)"/><path fill="#afb1b8" d="m48.303 42.765.116.02c3.951-2.455 6.963-5.884 8.647-9.842s1.962-8.265.799-12.363l-6.16-5.352c2.491 4.399 3.494 9.322 2.892 14.197s-2.785 9.501-6.294 13.34zM69.192 29.682c-1.046 4.103-3.588 7.803-7.247 10.552a23.114 23.114 0 0 1-3.443 2.148c2.98-.761 5.719-2.106 8.005-3.932s4.06-4.084 5.184-6.599l-2.498-2.168z" style="fill:var(--color5, #afb1b8)"/><path fill="#afb1b8" d="m68.212 29.077-3.557-3.09c-.068 3.523-1.221 6.967-3.339 9.972s-5.123 5.463-8.704 7.117h.017c.798 0 1.595-.042 2.388-.124 3.347-1.187 6.303-3.075 8.605-5.496s3.879-5.3 4.589-8.379zM48.817 12.972 44.574 9.28c-3.793 1.274-7.055 3.512-9.36 6.424s-3.544 6.359-3.555 9.892c.014 3.904 1.527 7.693 4.298 10.766s6.643 5.256 11.002 6.202c3.892-4.119 6.17-9.21 6.504-14.531s-1.293-10.597-4.646-15.06zM78.016 28.509c-.015-4.632-2.14-9.07-5.91-12.346s-8.878-5.121-14.209-5.135a22.606 22.606 0 0 0-7.204 1.165l25.979 22.572a15.31 15.31 0 0 0 1.344-6.256z" style="fill:var(--color5, #afb1b8)"/></symbol><symbol id="icon-logo4" viewBox="0 0 113 64"><path fill="#afb1b8" d="M25.756 22.51h-.003c-2.558 0-4.631 1.843-4.631 4.116v.003c0 2.273 2.074 4.116 4.631 4.116h.003c2.558 0 4.631-1.843 4.631-4.116v-.003c0-2.273-2.074-4.116-4.631-4.116zM59.941 21.194c-.007-3.157-1.422-6.184-3.933-8.416s-5.917-3.491-9.47-3.498c-3.554.006-6.96 1.263-9.473 3.496s-3.928 5.26-3.936 8.418v17.411s26.809-2.654 26.812-17.408v-.003zM11.733 44.319c.006 2.197.991 4.302 2.739 5.856s4.116 2.429 6.588 2.436c2.471-.007 4.84-.882 6.587-2.435s2.733-3.658 2.74-5.854V32.207s-18.654 1.848-18.654 12.112zm9.328 2.171c-.483 0-.955-.127-1.357-.366s-.715-.578-.899-.974c-.185-.397-.233-.833-.139-1.254s.327-.808.668-1.111c.342-.304.777-.51 1.251-.594s.965-.041 1.411.123c.446.164.828.443 1.096.799s.412.777.412 1.206c.001.286-.061.569-.183.833s-.302.505-.529.707c-.227.202-.497.363-.794.473s-.615.166-.937.166v-.008zM39.912 45.295h-1.8v1.859h-.938v-4.55h2.962v.759h-2.025v1.175h1.8v.756zm4.506-.313c0 .448-.079.841-.238 1.178s-.385.598-.681.781a1.876 1.876 0 0 1-1.013.275c-.377 0-.714-.091-1.009-.272s-.525-.44-.687-.775a2.684 2.684 0 0 1-.247-1.163v-.225c0-.448.08-.842.241-1.181.163-.342.391-.603.684-.784.296-.183.633-.275 1.013-.275s.716.092 1.009.275c.296.181.524.443.684.784.162.34.244.732.244 1.178v.203zm-.95-.206c0-.477-.085-.84-.256-1.087s-.415-.372-.731-.372a.834.834 0 0 0-.728.369c-.171.244-.257.602-.259 1.075v.222c0 .465.085.825.256 1.081s.417.384.737.384c.315 0 .556-.123.725-.369.169-.248.254-.608.256-1.081v-.222zm3.991 1.184a.476.476 0 0 0-.188-.406c-.125-.096-.35-.196-.675-.3a4.772 4.772 0 0 1-.772-.313c-.517-.279-.775-.655-.775-1.128 0-.246.069-.465.206-.656.14-.194.339-.345.597-.453.26-.108.552-.162.875-.162.325 0 .615.059.869.178.254.117.451.282.591.497.142.215.212.458.212.731h-.938c0-.208-.066-.37-.197-.484-.131-.117-.316-.175-.553-.175-.229 0-.407.049-.534.147a.455.455 0 0 0-.191.381c0 .148.074.272.222.372.15.1.37.194.659.281.533.16.922.359 1.166.597s.366.533.366.887c0 .394-.149.703-.447.928-.298.223-.699.334-1.203.334-.35 0-.669-.064-.956-.191a1.534 1.534 0 0 1-.659-.528 1.355 1.355 0 0 1-.225-.775h.941c0 .502.3.753.9.753.223 0 .397-.045.522-.134a.447.447 0 0 0 .188-.381zm5.003-2.597h-1.394v3.791h-.938v-3.791h-1.375v-.759h3.706v.759zm3.275 1.819h-1.8v1.219h2.113v.753H53v-4.55h3.044v.759h-2.106v1.084h1.8v.734zm2.547.306h-.747v1.666h-.938v-4.55h1.691c.538 0 .952.12 1.244.359s.437.578.437 1.016c0 .31-.068.57-.203.778a1.368 1.368 0 0 1-.609.494l.984 1.859v.044h-1.006l-.853-1.666zm-.747-.759h.756c.235 0 .418-.059.547-.178.129-.121.194-.286.194-.497 0-.215-.061-.383-.184-.506-.121-.123-.307-.184-.559-.184h-.753v1.366zm5.681.822v1.603h-.938v-4.55h1.775c.342 0 .642.063.9.188.26.125.46.303.6.534.139.229.209.491.209.784 0 .446-.153.798-.459 1.056-.304.256-.726.384-1.266.384h-.822zm0-.759h.837c.248 0 .436-.058.566-.175.131-.117.197-.283.197-.5 0-.223-.066-.403-.197-.541s-.313-.208-.544-.212h-.859v1.428zm5.932.39h-1.8v1.219h2.113v.753h-3.05v-4.55h3.044v.759h-2.106v1.084h1.8v.734zm4.35-1.819h-1.394v3.791h-.938v-3.791h-1.375v-.759h3.706v.759zm3.275 1.819h-1.8v1.219h2.112v.753h-3.05v-4.55h3.044v.759h-2.106v1.084h1.8v.734zm2.547.306h-.747v1.666h-.938v-4.55h1.691c.537 0 .952.12 1.244.359s.438.578.438 1.016c0 .31-.068.57-.203.778-.133.206-.337.371-.609.494l.984 1.859v.044h-1.006l-.853-1.666zm-.747-.759h.756c.235 0 .418-.059.547-.178.129-.121.194-.286.194-.497 0-.215-.061-.383-.184-.506-.121-.123-.307-.184-.559-.184h-.753v1.366zm5.509 1.231a.476.476 0 0 0-.188-.406c-.125-.096-.35-.196-.675-.3a4.772 4.772 0 0 1-.772-.313c-.517-.279-.775-.655-.775-1.128 0-.246.069-.465.206-.656.139-.194.338-.345.597-.453.26-.108.552-.162.875-.162.325 0 .615.059.869.178.254.117.451.282.591.497.142.215.213.458.213.731h-.938c0-.208-.066-.37-.197-.484-.131-.117-.316-.175-.553-.175-.229 0-.407.049-.534.147a.455.455 0 0 0-.191.381c0 .148.074.272.222.372.15.1.37.194.659.281.533.16.922.359 1.166.597s.366.533.366.887c0 .394-.149.703-.447.928-.298.223-.699.334-1.203.334-.35 0-.669-.064-.956-.191a1.528 1.528 0 0 1-.659-.528 1.355 1.355 0 0 1-.225-.775h.941c0 .502.3.753.9.753.223 0 .397-.045.522-.134a.447.447 0 0 0 .188-.381z" style="fill:var(--color5, #afb1b8)"/></symbol><symbol id="icon-logo5" viewBox="0 0 113 64"><path fill="#afb1b8" d="M28.541 47.718c.26.295.398.663.391 1.042.013.247-.034.494-.139.721s-.264.431-.467.595c-.505.349-1.13.52-1.762.481h-3.097v-6.604h3.034a2.77 2.77 0 0 1 1.681.439c.196.15.351.34.453.554s.148.448.135.681c.018.364-.107.722-.352 1.01a1.679 1.679 0 0 1-.923.516c.411.069.782.269 1.046.565zm-3.633-.997h1.297c.295.02.587-.058.825-.219.097-.081.173-.181.221-.293s.068-.232.057-.352c.009-.119-.011-.239-.058-.351s-.122-.212-.217-.294a1.342 1.342 0 0 0-.849-.223h-1.276v1.733zm2.248 2.532c.104-.083.186-.186.239-.303s.076-.242.067-.368c.008-.127-.016-.255-.071-.372s-.137-.222-.243-.305a1.43 1.43 0 0 0-.881-.239h-1.36v1.816h1.378c.31.016.617-.064.87-.229zM34.742 50.557l-1.688-2.581h-.634v2.581h-1.452v-6.604h2.748a2.881 2.881 0 0 1 1.913.561c.384.358.616.831.653 1.332s-.122.998-.449 1.401a2.286 2.286 0 0 1-1.311.671l1.797 2.639H34.74zm-2.322-3.482h1.187c.825 0 1.237-.333 1.237-1 .008-.136-.014-.272-.066-.4s-.133-.244-.237-.342a1.37 1.37 0 0 0-.934-.268h-1.202l.014 2.01zM42.678 49.227h-2.893l-.511 1.329h-1.522l2.657-6.53h1.646l2.646 6.53h-1.522l-.5-1.329zm-.388-1-1.057-2.788-1.057 2.788h2.114zM52.611 50.557H51.17l-3.231-4.491v4.491h-1.438v-6.604h1.438l3.231 4.517v-4.517h1.441v6.604zM60.835 48.976a3.004 3.004 0 0 1-1.304 1.165 4.574 4.574 0 0 1-2.026.416H54.94v-6.604h2.565a4.66 4.66 0 0 1 2.026.407 2.958 2.958 0 0 1 1.304 1.152c.297.537.451 1.131.451 1.733s-.155 1.195-.451 1.733zm-1.649-.158c.411-.439.637-.998.637-1.576s-.226-1.137-.637-1.576a2.654 2.654 0 0 0-1.804-.561h-1.001v4.275h1.001a2.654 2.654 0 0 0 1.804-.561zM43.58 7.218s18.601 6.43 18.207 15.735v15.738s-18.587-6.433-18.2-15.738L43.58 7.218zM78.358 35.006c3.513-2.214 7.577-3.585 11.818-3.988v-4.927c-4.887 1.725-9.034 4.852-11.818 8.914z" style="fill:var(--color5, #afb1b8)"/><path fill="#afb1b8" d="M76.247 36.49c2.875-5.301 7.86-9.392 13.929-11.431V10.863s-26.491 9.159-25.93 22.41V55.68s1.18-.41 3.037-1.178c0-.716 0-1.439.085-2.165.548-6.151 3.742-11.852 8.879-15.848z" style="fill:var(--color5, #afb1b8)"/><path fill="#afb1b8" d="M73.728 44.814c.139-1.554.45-3.091.927-4.588-3.199 3.451-5.136 7.733-5.539 12.244-.039.426-.06.852-.07 1.291a79.317 79.317 0 0 0 5.095-2.458 21.28 21.28 0 0 1-.412-6.488zM74.781 44.895a20.333 20.333 0 0 0 .328 5.875c7.238-3.965 15.37-10.092 15.056-17.496v-.645c-5.171.53-10.009 2.599-13.77 5.891a20.524 20.524 0 0 0-1.614 6.375z" style="fill:var(--color5, #afb1b8)"/></symbol><symbol id="icon-logo6" viewBox="0 0 113 64"><path fill="#afb1b8" d="M56.987 29.235a3.14 3.14 0 0 1-.645-2.121v-3.075c0-.943.214-1.659.641-2.149s1.162-.734 2.203-.732c.978 0 1.673.209 2.084.626.448.532.666 1.183.616 1.84v.723h-1.75v-.732a3.735 3.735 0 0 0-.051-.716.69.69 0 0 0-.25-.425 1.016 1.016 0 0 0-.634-.166 1.076 1.076 0 0 0-.667.175.824.824 0 0 0-.29.469c-.05.251-.073.506-.069.76v3.732c-.028.36.05.72.225 1.048.087.111.208.199.349.254s.298.076.452.059a.955.955 0 0 0 .62-.169.752.752 0 0 0 .261-.454c.041-.248.059-.498.054-.748v-.757h1.75v.691a2.813 2.813 0 0 1-.605 1.933c-.402.457-1.087.685-2.095.685s-1.768-.244-2.2-.751zM64.274 29.267c-.442-.479-.663-1.176-.663-2.099v-3.235c0-.913.221-1.605.663-2.074s1.181-.703 2.218-.701c1.029 0 1.765.234 2.207.701.442.469.667 1.161.667 2.074v3.235c0 .913-.225 1.614-.674 2.096s-1.181.723-2.2.723c-1.018 0-1.772-.244-2.218-.72zm3.033-.776c.158-.3.23-.628.21-.957v-3.961a1.764 1.764 0 0 0-.207-.939c-.089-.113-.213-.203-.357-.258s-.305-.074-.462-.055c-.157-.019-.317 0-.463.056s-.27.144-.36.257a1.717 1.717 0 0 0-.21.939v3.98c-.022.329.05.658.21.957.102.101.228.182.369.237a1.244 1.244 0 0 0 .9 0c.142-.055.267-.136.369-.237v-.019zM71.47 21.252h1.884l1.417 5.969 1.45-5.969h1.834l.185 8.615h-1.355l-.145-5.987-1.399 5.987h-1.087l-1.45-6.009-.134 6.009H71.3l.17-8.615zM80.352 21.252h2.935c1.691 0 2.537.815 2.537 2.446 0 1.562-.89 2.342-2.671 2.34h-1v3.829h-1.812l.011-8.615zm2.508 3.682c.179.02.361.005.533-.042s.33-.126.464-.23c.208-.291.299-.633.261-.973.01-.263-.02-.526-.087-.782-.026-.086-.071-.166-.133-.236s-.14-.129-.229-.173a1.888 1.888 0 0 0-.808-.138h-.703v2.575h.703zM88.437 21.252h1.946l1.997 8.615h-1.689l-.395-1.986H88.56l-.406 1.986H86.44l1.997-8.615zm1.663 5.631-.678-3.616-.678 3.616h1.355zM93.992 21.252h1.268l2.428 4.914v-4.914h1.504v8.615h-1.207l-2.442-5.13v5.13h-1.555l.004-8.615zM102.714 26.582l-2.018-5.318h1.7l1.232 3.416 1.156-3.416h1.663l-1.993 5.318v3.285h-1.739v-3.285zM59.784 33.634v.451h-1.478v3.501h-.62v-3.501H56.2v-.451h3.584zM64.419 37.585h-.478a.209.209 0 0 1-.134-.038.206.206 0 0 1-.08-.091l-.428-.939h-2.051l-.428.939a.257.257 0 0 1-.065.106.23.23 0 0 1-.134.038h-.478l1.812-3.951h.631l1.834 3.935zm-3.001-1.467h1.711l-.725-1.608a3.007 3.007 0 0 1-.134-.372c-.025.075-.047.147-.069.21l-.065.166-.718 1.605zM67.543 37.197c.114.005.227.005.341 0 .098-.009.195-.024.29-.047.089-.019.176-.043.261-.072.08-.028.159-.063.243-.097v-.889h-.725c-.018.001-.036-.001-.053-.007s-.032-.014-.045-.024c-.012-.009-.021-.02-.028-.032s-.009-.026-.009-.04v-.303h1.406V37.2a2.755 2.755 0 0 1-.764.323c-.148.038-.3.065-.453.081a5.493 5.493 0 0 1-.529.025 2.777 2.777 0 0 1-.913-.147 2.236 2.236 0 0 1-.725-.413 1.892 1.892 0 0 1-.467-.626 1.98 1.98 0 0 1-.167-.82 2.036 2.036 0 0 1 .163-.826 1.82 1.82 0 0 1 .467-.626c.207-.178.453-.317.725-.41.31-.101.64-.151.971-.147.169 0 .337.011.504.034a2.5 2.5 0 0 1 .431.1c.127.041.248.094.362.156.111.062.217.131.315.206l-.174.244c-.014.022-.034.041-.059.054s-.053.02-.083.021a.238.238 0 0 1-.112-.031 2.285 2.285 0 0 1-.178-.094 1.553 1.553 0 0 0-.243-.106 2.329 2.329 0 0 0-.333-.088 2.725 2.725 0 0 0-.46-.034 2.166 2.166 0 0 0-.699.109c-.202.07-.383.177-.533.313-.15.142-.265.309-.337.491a1.845 1.845 0 0 0 0 1.317c.079.186.203.355.362.498.149.136.329.242.529.313.23.068.475.095.717.078zM73.319 37.135h1.979v.45h-2.584v-3.951h.62l-.014 3.501zM77.356 37.585h-.62v-3.951h.62v3.951zM79.66 33.653a.294.294 0 0 1 .094.072l2.649 2.978a.83.83 0 0 1 0-.141v-2.944h.54v3.967h-.312a.29.29 0 0 1-.134-.022.35.35 0 0 1-.098-.075l-2.645-2.975v3.073h-.518v-3.952h.323c.035 0 .07.007.101.019zM87.505 33.634v.435h-2.196v1.305h1.779v.419h-1.779v1.348h2.196v.435h-2.834v-3.942h2.834zM22.573 9.233l27.515 6.745v23.635l-27.515-6.742V9.233zm-1.765-2.015v26.801l31.041 7.611V14.832L20.808 7.217z" style="fill:var(--color5, #afb1b8)"/><path fill="#afb1b8" d="M37.444 54.072 6.4 46.454V19.656l31.044 7.615v26.801zM21.322 8.929l27.156 6.66-11.549 9.973-27.16-6.663 11.552-9.97zm-.514-1.711L6.4 19.656l31.044 7.614 14.404-12.438-31.041-7.614zM39.191 52.564l12.657-10.93-12.657-3.106v14.037z" style="fill:var(--color5, #afb1b8)"/></symbol><symbol id="icon-smartphone" viewBox="0 0 40 64"><path fill="#757575" d="M34 0H6C2.691 0 0 2.691 0 6v52c0 3.309 2.691 6 6 6h28c3.309 0 6-2.691 6-6V6c0-3.309-2.691-6-6-6zM6 4h28c1.103 0 2 .896 2 2v42H4V6a2 2 0 0 1 2-2zm28 56H6a2 2 0 0 1-2-2v-6h32v6c0 1.104-.897 2-2 2z" style="fill:var(--color3, #757575)"/><path fill="#757575" d="M9.414 54.956c.781.73.781 1.912 0 2.641s-2.047.73-2.828 0c-.781-.729-.781-1.912 0-2.641s2.047-.729 2.828 0z" style="fill:var(--color3, #757575)"/></symbol><symbol id="icon-twitter" viewBox="0 0 64 64"><path fill="#fff" d="M64 32c0 8.837-3.582 16.837-9.373 22.628s-13.791 9.373-22.628 9.373-16.837-3.582-22.627-9.373C3.581 48.837-.001 40.837-.001 32S3.581 15.163 9.372 9.373 23.163 0 31.999 0c8.836 0 16.837 3.582 22.628 9.373S64 23.164 64 32z" style="fill:var(--color4, #fff)"/><path fill="#afb1b8" d="M46.545 22.98a12.47 12.47 0 0 1-3.436.942 5.933 5.933 0 0 0 2.624-3.296 11.926 11.926 0 0 1-3.782 1.444 5.962 5.962 0 0 0-10.316 4.078c0 .473.04.927.138 1.36-4.958-.242-9.345-2.618-12.293-6.238a6.002 6.002 0 0 0-.816 3.015 5.973 5.973 0 0 0 2.649 4.956 5.882 5.882 0 0 1-2.695-.735v.065c0 2.898 2.067 5.305 4.778 5.86a5.942 5.942 0 0 1-1.564.196c-.382 0-.767-.022-1.129-.102.773 2.362 2.965 4.098 5.573 4.155a11.984 11.984 0 0 1-7.395 2.544c-.489 0-.958-.022-1.427-.082a16.788 16.788 0 0 0 9.149 2.676c10.975 0 16.975-9.091 16.975-16.971 0-.264-.009-.518-.022-.771a11.896 11.896 0 0 0 2.989-3.096z" style="fill:var(--color5, #afb1b8)"/></symbol></defs></svg>